<svg width="107" height="38" viewBox="0 0 107 38" fill="none" xmlns="http://www.w3.org/2000/svg">
<path d="M10.3135 36.7087C7.36787 36.7087 5.11529 35.799 3.55581 33.9796C2.02521 32.1602 1.17328 29.6621 1 26.4854L5.33188 25.3158C5.47627 27.5684 5.90946 29.3878 6.63145 30.774C7.3823 32.1602 8.60969 32.8533 10.3135 32.8533C11.5842 32.8533 12.5372 32.5068 13.1726 31.8137C13.8368 31.0917 14.1689 30.0665 14.1689 28.738C14.1689 27.2941 13.8657 26.0956 13.2592 25.1426C12.6528 24.1895 11.6853 23.1355 10.3569 21.9803L4.46551 16.782C3.28146 15.7424 2.41508 14.6305 1.86638 13.4465C1.34655 12.2336 1.08664 10.7607 1.08664 9.02796C1.08664 6.4577 1.82306 4.46504 3.2959 3.04996C4.76874 1.63488 6.77584 0.927338 9.31721 0.927338C12.0896 0.927338 14.1833 1.66376 15.5984 3.1366C17.0135 4.60944 17.8654 6.89089 18.1542 9.98097L13.9956 11.1073C13.8513 9.05686 13.4469 7.4829 12.7827 6.38551C12.1474 5.25922 10.9922 4.69608 9.31721 4.69608C8.07538 4.69608 7.12239 5.02819 6.45817 5.69241C5.79395 6.32775 5.46184 7.28079 5.46184 8.55145C5.46184 9.5911 5.63511 10.4719 5.98166 11.1939C6.32821 11.887 6.92024 12.5945 7.75773 13.3165L13.6924 18.5148C15.223 19.8721 16.4359 21.3449 17.3312 22.9333C18.2553 24.5217 18.7174 26.3266 18.7174 28.3482C18.7174 30.9184 17.9377 32.9544 16.3782 34.4561C14.8187 35.9578 12.7971 36.7087 10.3135 36.7087ZM22.5146 1.23057H27.4096V17.7784L35.4669 1.23057H40.0154L33.0844 16.6954L41.1416 36.3188H36.3766L29.6622 19.8577L27.4096 23.9296V36.3188H22.5146V1.23057ZM44.2224 1.23057H49.0307V36.3188H44.2224V1.23057ZM54.9675 1.23057H59.7758V36.3188H54.9675V1.23057ZM65.4526 1.23057H68.7885L78.7519 24.5361V1.23057H82.8238V36.3188H79.7049L69.6116 12.3635V36.3188H65.4526V1.23057ZM96.6994 36.752C93.5229 36.752 91.227 35.7557 89.8117 33.763C88.3964 31.7414 87.6891 28.7524 87.6891 24.796V13.0566C87.6891 10.3419 87.9632 8.11826 88.5121 6.38551C89.0895 4.62388 90.0574 3.28099 91.4145 2.35686C92.8007 1.40385 94.6925 0.927338 97.0893 0.927338C100.324 0.927338 102.648 1.7504 104.064 3.39651C105.507 5.04263 106.23 7.62734 106.23 11.1506V12.4501H101.638V11.3672C101.638 9.69216 101.537 8.40708 101.334 7.5118C101.132 6.58767 100.699 5.89456 100.035 5.4325C99.3994 4.97043 98.4463 4.73939 97.1759 4.73939C95.8188 4.73939 94.8076 5.05706 94.1436 5.69241C93.4796 6.29887 93.0464 7.12193 92.844 8.16158C92.6707 9.20123 92.5841 10.5874 92.5841 12.3202V25.3158C92.5841 28.0016 92.9015 29.9365 93.5371 31.1206C94.2011 32.2757 95.4573 32.8533 97.3058 32.8533C99.1252 32.8533 100.367 32.2179 101.031 30.9473C101.724 29.6766 102.071 27.6406 102.071 24.8393V22.4135H97.6091V18.948H106.489V36.3188H103.414L102.937 32.2902C101.84 35.2647 99.7608 36.752 96.6994 36.752Z" fill="#060D10" stroke="#060D10"/>
</svg>
