<svg width="37" height="53" viewBox="0 0 37 53" fill="none" xmlns="http://www.w3.org/2000/svg">
<path d="M35.2764 42.8528C34.8077 41.8818 33.7409 41.3428 32.2724 41.3351C31.3786 41.3304 30.376 41.5252 29.3719 41.8921L19.698 21.8422L26.7748 7.17511C26.7759 7.26985 26.7769 7.36552 26.7776 7.46373C26.7848 8.37997 26.7921 9.32729 27.1058 10.2151C27.3418 10.8841 27.7774 11.3875 28.3649 11.6712C28.365 11.6713 28.365 11.6713 28.3652 11.6713C28.692 11.8288 29.0596 11.9158 29.4576 11.9292C30.7238 11.9725 32.8442 11.4633 33.1436 9.91308C33.4754 8.19326 31.5833 7.08753 30.7752 6.61543L30.6729 6.55558C30.0325 6.18203 29.3705 5.79566 28.8534 5.28555C28.6992 5.13373 28.5639 4.97012 28.4467 4.796L29.1979 3.23909C29.5719 2.46392 29.2455 1.52896 28.4703 1.15496C27.6951 0.780949 26.7602 1.10735 26.3862 1.88252L24.935 4.89028C24.745 5.28405 24.7366 5.71883 24.875 6.10069L18.4889 19.3364L12.1029 6.10069C12.2413 5.71883 12.2329 5.28416 12.0428 4.89028L10.5915 1.88252C10.2175 1.10735 9.28251 0.780949 8.50735 1.15496C7.73218 1.52896 7.40578 2.46392 7.77978 3.23909L8.5308 4.796C8.41364 4.97012 8.27846 5.13373 8.12421 5.28555C7.60717 5.79566 6.94512 6.18203 6.30479 6.55558L6.20253 6.61543C5.39444 7.08753 3.50222 8.19326 3.83406 9.91308C4.13342 11.4633 6.25372 11.9725 7.52005 11.9292C7.91797 11.9158 8.28562 11.8288 8.61249 11.6713C8.6126 11.6713 8.6126 11.6713 8.6126 11.6713C9.20025 11.3876 9.63572 10.8841 9.87189 10.2151C10.1856 9.32718 10.1929 8.37985 10.2 7.46373C10.2008 7.36552 10.2018 7.26985 10.2028 7.17511L17.2796 21.8422L7.60566 41.8921C6.60161 41.5251 5.59906 41.3304 4.70524 41.3351C3.23671 41.3427 2.1698 41.8817 1.70129 42.8528C1.23265 43.8239 1.47471 44.9945 2.38263 46.1487C2.87587 46.7759 3.54809 47.3715 4.33516 47.8889L3.8671 51.3527C3.84596 51.5083 3.92741 51.6598 4.06907 51.7282C4.21049 51.7964 4.37987 51.7659 4.48871 51.6526L6.9086 49.1306C7.80335 49.4249 8.68794 49.5803 9.48575 49.576C10.9543 49.5685 12.0211 49.0295 12.4897 48.0582C12.9583 47.0872 12.7162 45.9167 11.8082 44.7624C11.2557 44.0599 10.4794 43.3963 9.5672 42.8388L18.4889 24.3482L27.4103 42.8386C26.4981 43.3961 25.7217 44.0596 25.1693 44.7621C24.2614 45.9165 24.0193 47.0869 24.4879 48.0579C24.9565 49.0292 26.0233 49.5682 27.4919 49.5758C28.2896 49.58 29.1743 49.4245 30.0689 49.1304L32.4889 51.6524C32.5977 51.7656 32.7672 51.7961 32.9086 51.728C33.0502 51.6596 33.1316 51.5081 33.1105 51.3525L32.6425 47.8887C33.4297 47.3713 34.1018 46.7757 34.595 46.1485C35.5029 44.9945 35.7449 43.8239 35.2764 42.8528ZM29.3222 7.43461C29.5095 7.55027 29.7035 7.66038 29.8912 7.76691C30.361 8.03358 30.8049 8.28534 31.1685 8.62549C31.5753 9.00574 31.7735 9.34971 31.7264 9.59396C31.663 9.92163 31.2562 10.1718 30.4827 10.3588C30.0472 10.464 29.4973 10.5668 29.1057 10.4264C29.0721 10.4144 29.0395 10.4008 29.0085 10.3858C28.4917 10.1364 28.3595 9.45924 28.2984 8.82977C28.2518 8.349 28.2429 7.85079 28.2342 7.36899C28.2301 7.13351 28.2258 6.89434 28.2171 6.65379C28.5295 6.91329 28.8906 7.16783 29.3222 7.43461ZM8.74363 7.36899C8.73508 7.85079 8.72618 8.34889 8.6795 8.82977C8.61838 9.45924 8.4862 10.1364 7.96939 10.3858C7.93842 10.4008 7.90572 10.4144 7.87222 10.4264C7.48053 10.5668 6.93067 10.464 6.4952 10.3588C5.72165 10.1718 5.31483 9.92163 5.25151 9.59396C5.20426 9.34971 5.40253 9.00574 5.80923 8.62549C6.17284 8.28546 6.61675 8.03358 7.08665 7.76691C7.27441 7.66038 7.46829 7.55027 7.65569 7.43461C8.08724 7.16783 8.4483 6.91329 8.76061 6.65379C8.75206 6.89434 8.74767 7.13351 8.74363 7.36899ZM10.5284 47.1116C10.3825 47.4141 8.78025 47.7192 6.52801 46.6324C4.27566 45.5457 3.51713 44.1018 3.66317 43.7993C3.78611 43.5444 4.94429 43.2876 6.6543 43.8646L5.76683 45.7038L7.7286 46.6501L8.61584 44.8109C10.1316 45.7906 10.6513 46.8569 10.5284 47.1116ZM30.4499 46.6324C28.1976 47.7192 26.5954 47.4142 26.4495 47.1116C26.3265 46.8569 26.8463 45.7904 28.362 44.811L29.2494 46.6502L31.211 45.7039L30.3237 43.8647C32.0337 43.2877 33.1919 43.5445 33.3148 43.7994C33.4607 44.1017 32.7022 45.5456 30.4499 46.6324Z" fill="#060D10" stroke="#060D10"/>
</svg>
