<svg width="131" height="38" viewBox="0 0 131 38" fill="none" xmlns="http://www.w3.org/2000/svg">
<path d="M10.1614 37.2268C7.2157 37.2268 4.96313 36.3171 3.40365 34.4977C1.87305 32.6783 1.02111 30.1802 0.847839 27.0035L5.17972 25.8339C5.32411 28.0865 5.7573 29.9059 6.47928 31.2921C7.23014 32.6783 8.45753 33.3714 10.1614 33.3714C11.432 33.3714 12.3851 33.0249 13.0204 32.3318C13.6846 31.6097 14.0168 30.5846 14.0168 29.2561C14.0168 27.8122 13.7135 26.6137 13.1071 25.6607C12.5006 24.7076 11.5332 23.6536 10.2047 22.4984L4.31334 17.3001C3.1293 16.2605 2.26292 15.1486 1.71422 13.9646C1.19439 12.7516 0.934477 11.2788 0.934477 9.54605C0.934477 6.9758 1.6709 4.98313 3.14374 3.56806C4.61658 2.15297 6.62368 1.44543 9.16505 1.44543C11.9375 1.44543 14.0312 2.18186 15.4463 3.6547C16.8614 5.12754 17.7133 7.40899 18.0021 10.4991L13.8435 11.6254C13.6991 9.57496 13.2948 8.00099 12.6306 6.90361C11.9952 5.77732 10.8401 5.21417 9.16505 5.21417C7.92322 5.21417 6.97023 5.54629 6.30601 6.21051C5.64179 6.84584 5.30968 7.79888 5.30968 9.06955C5.30968 10.1092 5.48295 10.99 5.8295 11.712C6.17605 12.4051 6.76808 13.1126 7.60557 13.8346L13.5402 19.0329C15.0708 20.3902 16.2838 21.863 17.179 23.4514C18.1031 25.0398 18.5652 26.8447 18.5652 28.8662C18.5652 31.4365 17.7855 33.4725 16.226 34.9742C14.6665 36.4759 12.645 37.2268 10.1614 37.2268ZM31.1561 37.2268C27.6906 37.2268 25.2503 36.2015 23.8352 34.1511C22.4201 32.0718 21.7126 29.2128 21.7126 25.574V13.1848C21.7126 9.34388 22.4057 6.4271 23.7919 4.43443C25.1781 2.44177 27.6329 1.44543 31.1561 1.44543C34.304 1.44543 36.5565 2.29737 37.9138 4.00125C39.3001 5.70512 39.9932 8.21759 39.9932 11.5387V14.3111H35.358V11.842C35.358 10.2247 35.2858 8.98291 35.1414 8.11653C34.9971 7.25016 34.6216 6.55706 34.0152 6.03723C33.4376 5.5174 32.499 5.25749 31.1994 5.25749C29.871 5.25749 28.8746 5.54628 28.2104 6.12387C27.5751 6.67257 27.1564 7.45231 26.9542 8.46308C26.752 9.445 26.651 10.7734 26.651 12.4484V26.3538C26.651 28.1442 26.7953 29.5449 27.0841 30.5557C27.373 31.5664 27.835 32.2884 28.4704 32.7216C29.1345 33.1548 30.0442 33.3714 31.1994 33.3714C32.4413 33.3714 33.3654 33.0971 33.9718 32.5483C34.5783 31.9996 34.9538 31.2488 35.0981 30.2958C35.2714 29.3428 35.358 28.0432 35.358 26.3971V23.7979H39.9932V26.3971C39.9932 29.8915 39.329 32.5772 38.0005 34.4544C36.7009 36.3027 34.4194 37.2268 31.1561 37.2268ZM44.6564 1.74867H49.5514V16.9103H58.5617V1.74867H63.4567V36.8369H58.5617V20.4191H49.5514V36.8369H44.6564V1.74867ZM77.9059 37.2268C74.4688 37.2268 71.9997 36.2593 70.4984 34.3244C69.0256 32.3607 68.2891 29.5304 68.2891 25.8339V12.5351C68.2891 8.89627 69.0398 6.13831 70.5417 4.26116C72.043 2.38401 74.4979 1.44543 77.9059 1.44543C81.3132 1.44543 83.7539 2.39845 85.2268 4.30448C86.7281 6.18162 87.4794 8.92517 87.4794 12.5351V25.8772C87.4794 29.516 86.7281 32.3173 85.2268 34.2811C83.7248 36.2449 81.2848 37.2268 77.9059 37.2268ZM77.9059 33.3714C79.7253 33.3714 80.9524 32.8372 81.588 31.7686C82.2229 30.7001 82.541 29.0828 82.541 26.9169V11.5387C82.541 9.40168 82.2229 7.82772 81.588 6.81697C80.9524 5.77732 79.7253 5.25749 77.9059 5.25749C76.0574 5.25749 74.8154 5.77732 74.1805 6.81697C73.5449 7.82772 73.2275 9.40168 73.2275 11.5387V26.9169C73.2275 29.0828 73.5449 30.7001 74.1805 31.7686C74.8154 32.8372 76.0574 33.3714 77.9059 33.3714ZM101.257 37.2268C97.8204 37.2268 95.3512 36.2593 93.8499 34.3244C92.3771 32.3607 91.6407 29.5304 91.6407 25.8339V12.5351C91.6407 8.89627 92.3913 6.13831 93.8933 4.26116C95.3945 2.38401 97.8495 1.44543 101.257 1.44543C104.665 1.44543 107.105 2.39845 108.578 4.30448C110.08 6.18162 110.831 8.92517 110.831 12.5351V25.8772C110.831 29.516 110.08 32.3173 108.578 34.2811C107.076 36.2449 104.636 37.2268 101.257 37.2268ZM101.257 33.3714C103.077 33.3714 104.304 32.8372 104.94 31.7686C105.574 30.7001 105.893 29.0828 105.893 26.9169V11.5387C105.893 9.40168 105.574 7.82772 104.94 6.81697C104.304 5.77732 103.077 5.25749 101.257 5.25749C99.409 5.25749 98.1669 5.77732 97.532 6.81697C96.8965 7.82772 96.579 9.40168 96.579 11.5387V26.9169C96.579 29.0828 96.8965 30.7001 97.532 31.7686C98.1669 32.8372 99.409 33.3714 101.257 33.3714ZM115.642 1.74867H120.537V33.3281H129.504V36.8369H115.642V1.74867Z" fill="#060D10" stroke="#060D10"/>
</svg>
